<svg width="1010" height="468" viewBox="0 0 1010 468" fill="none" xmlns="http://www.w3.org/2000/svg">
<path d="M511.619 159.985C514.33 151.735 515.035 146.885 515.329 138.032L516.566 151.018L511.619 159.985Z" fill="url(#paint0_linear_109_3779)"/>
<path d="M511.619 159.985C514.33 151.735 515.035 146.885 515.329 138.032L516.566 151.018L511.619 159.985Z" fill="url(#paint1_linear_109_3779)"/>
<path d="M673.019 92.8894H709.504C715.993 92.8894 721.253 98.1497 721.253 104.639V232.027C721.253 245.347 710.455 256.144 697.136 256.144C683.816 256.144 673.019 245.347 673.019 232.027V92.8894Z" fill="url(#paint2_linear_109_3779)"/>
<path d="M673.019 92.8894H709.504C715.993 92.8894 721.253 98.1497 721.253 104.639V232.027C721.253 245.347 710.455 256.144 697.136 256.144C683.816 256.144 673.019 245.347 673.019 232.027V92.8894Z" fill="url(#paint3_linear_109_3779)"/>
<path d="M515.329 105.257C515.329 98.4266 520.866 92.8894 527.697 92.8894H554.288C559.411 92.8894 563.564 97.0423 563.564 102.165V119.48C563.564 132.8 552.766 143.597 539.446 143.597H515.329V105.257Z" fill="url(#paint4_linear_109_3779)"/>
<path d="M515.329 105.257C515.329 98.4266 520.866 92.8894 527.697 92.8894H554.288C559.411 92.8894 563.564 97.0423 563.564 102.165V119.48C563.564 132.8 552.766 143.597 539.446 143.597H515.329V105.257Z" fill="url(#paint5_linear_109_3779)"/>
<path d="M515.329 127.519C515.329 114.2 526.127 103.402 539.446 103.402H563.564V149.781C563.564 176.42 541.968 198.016 515.329 198.016V127.519Z" fill="url(#paint6_linear_109_3779)"/>
<path d="M515.329 127.519C515.329 114.2 526.127 103.402 539.446 103.402H563.564V149.781C563.564 176.42 541.968 198.016 515.329 198.016V127.519Z" fill="url(#paint7_linear_109_3779)"/>
<path d="M515.316 105.102C515.202 91.479 517.778 77.9733 522.896 65.3633C528.014 52.7533 535.572 41.2885 545.135 31.6295C554.699 21.9706 566.077 14.3086 578.616 9.08523C591.155 3.86184 604.606 1.18033 618.193 1.19528C631.78 1.21023 645.235 3.92133 657.782 9.17232C670.33 14.4233 681.721 22.1103 691.301 31.7903C700.88 41.4703 708.457 52.9519 713.596 65.5731C718.734 78.1944 721.333 91.7058 721.241 105.329L673.125 104.911C673.174 97.654 671.789 90.4567 669.052 83.7336C666.315 77.0104 662.279 70.8944 657.176 65.738C652.073 60.5816 646.005 56.4869 639.321 53.6898C632.638 50.8926 625.47 49.4485 618.233 49.4405C610.995 49.4326 603.83 50.8609 597.151 53.6434C590.471 56.4258 584.41 60.5072 579.316 65.6524C574.222 70.7975 570.195 76.9047 567.469 83.6218C564.743 90.3389 563.371 97.5332 563.431 104.79L515.316 105.102Z" fill="url(#paint8_linear_109_3779)"/>
<path d="M515.316 105.102C515.202 91.479 517.778 77.9733 522.896 65.3633C528.014 52.7533 535.572 41.2885 545.135 31.6295C554.699 21.9706 566.077 14.3086 578.616 9.08523C591.155 3.86184 604.606 1.18033 618.193 1.19528C631.78 1.21023 645.235 3.92133 657.782 9.17232C670.33 14.4233 681.721 22.1103 691.301 31.7903C700.88 41.4703 708.457 52.9519 713.596 65.5731C718.734 78.1944 721.333 91.7058 721.241 105.329L673.125 104.911C673.174 97.654 671.789 90.4567 669.052 83.7336C666.315 77.0104 662.279 70.8944 657.176 65.738C652.073 60.5816 646.005 56.4869 639.321 53.6898C632.638 50.8926 625.47 49.4485 618.233 49.4405C610.995 49.4326 603.83 50.8609 597.151 53.6434C590.471 56.4258 584.41 60.5072 579.316 65.6524C574.222 70.7975 570.195 76.9047 567.469 83.6218C564.743 90.3389 563.371 97.5332 563.431 104.79L515.316 105.102Z" fill="url(#paint9_linear_109_3779)"/>
<path d="M492.043 59.5455C503.315 48.7136 503.765 30.4723 490.74 21.8283C480.573 15.0814 469.47 9.76257 457.742 6.06293C436.96 -0.492423 414.873 -1.75562 393.496 2.38863C372.12 6.53288 352.135 15.9526 335.365 29.7881C318.595 43.6236 305.574 61.4343 297.491 81.5946C289.408 101.755 286.52 123.623 289.091 145.203C291.662 166.783 299.609 187.387 312.208 205.136C324.807 222.885 341.656 237.213 361.218 246.812C372.268 252.234 383.984 256.05 396.012 258.184C411.393 260.914 423.652 247.42 422.983 231.813C422.316 216.253 408.76 204.673 394.077 199.481C391.376 198.526 388.725 197.412 386.139 196.143C375.07 190.711 365.536 182.604 358.406 172.56C351.277 162.517 346.78 150.857 345.325 138.646C343.87 126.434 345.504 114.06 350.078 102.652C354.652 91.2435 362.02 81.165 371.51 73.3359C380.999 65.5067 392.309 60.1764 404.405 57.8313C416.501 55.4862 429 56.201 440.76 59.9105C443.508 60.7773 446.195 61.8012 448.809 62.9745C463.016 69.3513 480.815 70.3358 492.043 59.5455Z" fill="url(#paint10_linear_109_3779)"/>
<path d="M492.043 59.5455C503.315 48.7136 503.765 30.4723 490.74 21.8283C480.573 15.0814 469.47 9.76257 457.742 6.06293C436.96 -0.492423 414.873 -1.75562 393.496 2.38863C372.12 6.53288 352.135 15.9526 335.365 29.7881C318.595 43.6236 305.574 61.4343 297.491 81.5946C289.408 101.755 286.52 123.623 289.091 145.203C291.662 166.783 299.609 187.387 312.208 205.136C324.807 222.885 341.656 237.213 361.218 246.812C372.268 252.234 383.984 256.05 396.012 258.184C411.393 260.914 423.652 247.42 422.983 231.813C422.316 216.253 408.76 204.673 394.077 199.481C391.376 198.526 388.725 197.412 386.139 196.143C375.07 190.711 365.536 182.604 358.406 172.56C351.277 162.517 346.78 150.857 345.325 138.646C343.87 126.434 345.504 114.06 350.078 102.652C354.652 91.2435 362.02 81.165 371.51 73.3359C380.999 65.5067 392.309 60.1764 404.405 57.8313C416.501 55.4862 429 56.201 440.76 59.9105C443.508 60.7773 446.195 61.8012 448.809 62.9745C463.016 69.3513 480.815 70.3358 492.043 59.5455Z" fill="url(#paint11_linear_109_3779)"/>
<path d="M541.575 135.121C554.924 135.828 565.447 147.25 562.447 160.277C556.876 184.468 544.504 206.641 526.587 223.986C508.831 241.175 486.646 252.634 462.788 257.251C449.478 259.827 438.382 248.624 438.294 235.067C438.205 221.329 449.611 210.524 462.666 206.248C473.828 202.593 484.127 196.429 492.743 188.088C501.504 179.607 508.125 169.263 512.224 157.91C516.833 145.146 528.023 134.402 541.575 135.121Z" fill="url(#paint12_linear_109_3779)"/>
<path d="M541.575 135.121C554.924 135.828 565.447 147.25 562.447 160.277C556.876 184.468 544.504 206.641 526.587 223.986C508.831 241.175 486.646 252.634 462.788 257.251C449.478 259.827 438.382 248.624 438.294 235.067C438.205 221.329 449.611 210.524 462.666 206.248C473.828 202.593 484.127 196.429 492.743 188.088C501.504 179.607 508.125 169.263 512.224 157.91C516.833 145.146 528.023 134.402 541.575 135.121Z" fill="url(#paint13_linear_109_3779)"/>
<path d="M467.704 112.699C460.344 112.275 453.09 118.403 450.215 121.695C450.111 121.814 449.964 121.881 449.806 121.881C449.618 121.881 449.444 121.783 449.343 121.625C445.312 115.328 437.16 112.699 432.406 112.699C427.443 112.699 420.857 114.859 416.964 119.181C400.418 137.546 419.17 154.83 421.376 156.991C423.582 159.152 446.746 179.137 447.849 179.677C448.952 180.217 450.606 180.217 452.261 179.677C453.585 179.245 470.461 164.373 478.734 156.991C500.243 135.925 484.249 120.801 482.595 119.181C480.94 117.56 477.079 113.239 467.704 112.699Z" fill="url(#paint14_linear_109_3779)"/>
<path d="M467.704 112.699C460.344 112.275 453.09 118.403 450.215 121.695C450.111 121.814 449.964 121.881 449.806 121.881C449.618 121.881 449.444 121.783 449.343 121.625C445.312 115.328 437.16 112.699 432.406 112.699C427.443 112.699 420.857 114.859 416.964 119.181C400.418 137.546 419.17 154.83 421.376 156.991C423.582 159.152 446.746 179.137 447.849 179.677C448.952 180.217 450.606 180.217 452.261 179.677C453.585 179.245 470.461 164.373 478.734 156.991C500.243 135.925 484.249 120.801 482.595 119.181C480.94 117.56 477.079 113.239 467.704 112.699Z" fill="url(#paint15_linear_109_3779)"/>
<path d="M521.532 147.787L516.731 146.595C514.432 150.538 513.83 152.739 514.241 156.629L519.042 157.821L521.532 147.787Z" fill="url(#paint16_linear_109_3779)"/>
<path d="M521.532 147.787L516.731 146.595C514.432 150.538 513.83 152.739 514.241 156.629L519.042 157.821L521.532 147.787Z" fill="url(#paint17_linear_109_3779)"/>
<path d="M151.135 467.834C141.129 467.834 131.741 465.981 122.97 462.275C114.322 458.446 106.725 453.195 100.178 446.525C93.754 439.73 88.6891 431.824 84.9831 422.806C81.4006 413.788 79.6094 404.029 79.6094 393.529C79.6094 383.152 81.4006 373.516 84.9831 364.622C88.6891 355.604 93.754 347.759 100.178 341.088C106.725 334.294 114.322 328.982 122.97 325.153C131.617 321.323 141.006 319.408 151.135 319.408C160.648 319.408 168.801 320.644 175.595 323.114C182.513 325.585 189.431 329.662 196.349 335.344C197.337 336.085 198.078 336.888 198.573 337.753C199.19 338.494 199.561 339.297 199.684 340.162C199.931 340.903 200.055 341.83 200.055 342.941C200.055 345.289 199.19 347.265 197.461 348.871C195.855 350.353 193.878 351.218 191.531 351.465C189.184 351.589 186.899 350.786 184.675 349.056C180.104 345.103 175.348 342.077 170.407 339.977C165.589 337.877 159.165 336.826 151.135 336.826C143.847 336.826 136.991 338.309 130.567 341.274C124.143 344.239 118.461 348.315 113.519 353.504C108.702 358.692 104.934 364.745 102.216 371.663C99.4983 378.457 98.1395 385.746 98.1395 393.529C98.1395 401.435 99.4983 408.847 102.216 415.765C104.934 422.559 108.702 428.55 113.519 433.739C118.461 438.927 124.143 443.004 130.567 445.969C136.991 448.81 143.847 450.231 151.135 450.231C157.436 450.231 163.365 449.181 168.924 447.08C174.607 444.857 180.042 441.83 185.231 438.001C187.454 436.395 189.616 435.715 191.716 435.962C193.94 436.086 195.793 436.951 197.275 438.557C198.758 440.039 199.499 442.139 199.499 444.857C199.499 446.092 199.252 447.328 198.758 448.563C198.264 449.675 197.522 450.725 196.534 451.713C189.863 457.025 182.698 461.04 175.039 463.758C167.504 466.475 159.536 467.834 151.135 467.834Z" fill="#010111"/>
<path d="M263.299 466.722C254.281 466.722 246.19 464.499 239.025 460.052C231.86 455.481 226.177 449.366 221.977 441.707C217.9 433.924 215.862 425.153 215.862 415.394C215.862 405.635 218.086 396.864 222.533 389.081C227.104 381.299 233.218 375.184 240.878 370.737C248.66 366.166 257.369 363.88 267.005 363.88C276.641 363.88 285.288 366.166 292.947 370.737C300.606 375.184 306.659 381.299 311.107 389.081C315.677 396.864 317.963 405.635 317.963 415.394H310.736C310.736 425.153 308.636 433.924 304.436 441.707C300.359 449.366 294.738 455.481 287.573 460.052C280.408 464.499 272.317 466.722 263.299 466.722ZM267.005 450.045C273.305 450.045 278.926 448.563 283.867 445.598C288.809 442.51 292.7 438.371 295.541 433.183C298.383 427.871 299.803 421.941 299.803 415.394C299.803 408.723 298.383 402.794 295.541 397.605C292.7 392.293 288.809 388.155 283.867 385.19C278.926 382.102 273.305 380.557 267.005 380.557C260.828 380.557 255.208 382.102 250.143 385.19C245.201 388.155 241.248 392.293 238.283 397.605C235.442 402.794 234.021 408.723 234.021 415.394C234.021 421.941 235.442 427.871 238.283 433.183C241.248 438.371 245.201 442.51 250.143 445.598C255.208 448.563 260.828 450.045 267.005 450.045ZM308.512 466.166C305.795 466.166 303.509 465.302 301.656 463.572C299.927 461.719 299.062 459.434 299.062 456.716V428.365L302.583 408.723L317.963 415.394V456.716C317.963 459.434 317.036 461.719 315.183 463.572C313.454 465.302 311.23 466.166 308.512 466.166Z" fill="#010111"/>
<path d="M370.181 465.981C364.746 465.981 359.928 464.499 355.728 461.534C351.528 458.569 348.254 454.554 345.907 449.489C343.56 444.301 342.386 438.371 342.386 431.701V330.526C342.386 327.809 343.251 325.585 344.98 323.855C346.71 322.126 348.934 321.261 351.651 321.261C354.369 321.261 356.593 322.126 358.322 323.855C360.052 325.585 360.916 327.809 360.916 330.526V431.701C360.916 436.271 361.781 440.039 363.511 443.004C365.24 445.969 367.464 447.451 370.181 447.451H374.814C377.285 447.451 379.261 448.316 380.744 450.045C382.349 451.775 383.152 453.998 383.152 456.716C383.152 459.434 381.979 461.657 379.632 463.387C377.285 465.116 374.258 465.981 370.552 465.981H370.181Z" fill="#010111"/>
<path d="M425.735 465.981C420.3 465.981 415.482 464.499 411.282 461.534C407.082 458.569 403.808 454.554 401.461 449.489C399.114 444.301 397.94 438.371 397.94 431.701V330.526C397.94 327.809 398.805 325.585 400.534 323.855C402.264 322.126 404.488 321.261 407.205 321.261C409.923 321.261 412.147 322.126 413.876 323.855C415.606 325.585 416.47 327.809 416.47 330.526V431.701C416.47 436.271 417.335 440.039 419.065 443.004C420.794 445.969 423.018 447.451 425.735 447.451H430.368C432.839 447.451 434.815 448.316 436.298 450.045C437.904 451.775 438.706 453.998 438.706 456.716C438.706 459.434 437.533 461.657 435.186 463.387C432.839 465.116 429.812 465.981 426.106 465.981H425.735Z" fill="#010111"/>
<path d="M542.809 466.166C540.092 466.166 537.806 465.302 535.953 463.572C534.224 461.719 533.359 459.434 533.359 456.716V411.132C533.359 404.091 532.062 398.346 529.468 393.899C526.874 389.452 523.353 386.178 518.906 384.078C514.582 381.855 509.579 380.743 503.896 380.743C498.708 380.743 494.013 381.793 489.813 383.893C485.613 385.993 482.278 388.834 479.807 392.417C477.336 395.876 476.101 399.891 476.101 404.461H464.427C464.427 396.679 466.28 389.761 469.986 383.708C473.816 377.531 479.004 372.651 485.551 369.069C492.099 365.486 499.449 363.695 507.602 363.695C516.126 363.695 523.723 365.548 530.394 369.254C537.189 372.837 542.501 378.149 546.33 385.19C550.283 392.231 552.26 400.879 552.26 411.132V456.716C552.26 459.434 551.333 461.719 549.48 463.572C547.751 465.302 545.527 466.166 542.809 466.166ZM466.651 466.166C463.933 466.166 461.648 465.302 459.795 463.572C458.065 461.719 457.2 459.434 457.2 456.716V374.072C457.2 371.231 458.065 368.945 459.795 367.216C461.648 365.486 463.933 364.622 466.651 364.622C469.492 364.622 471.777 365.486 473.507 367.216C475.236 368.945 476.101 371.231 476.101 374.072V456.716C476.101 459.434 475.236 461.719 473.507 463.572C471.777 465.302 469.492 466.166 466.651 466.166Z" fill="#010111"/>
<path d="M625.758 466.722C616.74 466.722 608.648 464.499 601.483 460.052C594.318 455.481 588.636 449.366 584.435 441.707C580.359 433.924 578.321 425.153 578.321 415.394C578.321 405.635 580.544 396.864 584.991 389.081C589.562 381.299 595.677 375.184 603.336 370.737C611.119 366.166 619.828 363.88 629.464 363.88C639.099 363.88 647.747 366.166 655.406 370.737C663.065 375.184 669.118 381.299 673.565 389.081C678.136 396.864 680.421 405.635 680.421 415.394H673.195C673.195 425.153 671.095 433.924 666.894 441.707C662.818 449.366 657.197 455.481 650.032 460.052C642.867 464.499 634.776 466.722 625.758 466.722ZM629.464 450.045C635.764 450.045 641.385 448.563 646.326 445.598C651.267 442.51 655.159 438.371 658 433.183C660.841 427.871 662.262 421.941 662.262 415.394C662.262 408.723 660.841 402.794 658 397.605C655.159 392.293 651.267 388.155 646.326 385.19C641.385 382.102 635.764 380.557 629.464 380.557C623.287 380.557 617.666 382.102 612.601 385.19C607.66 388.155 603.707 392.293 600.742 397.605C597.901 402.794 596.48 408.723 596.48 415.394C596.48 421.941 597.901 427.871 600.742 433.183C603.707 438.371 607.66 442.51 612.601 445.598C617.666 448.563 623.287 450.045 629.464 450.045ZM670.971 466.166C668.253 466.166 665.968 465.302 664.115 463.572C662.385 461.719 661.521 459.434 661.521 456.716V428.365L665.041 408.723L680.421 415.394V456.716C680.421 459.434 679.495 461.719 677.642 463.572C675.912 465.302 673.689 466.166 670.971 466.166Z" fill="#010111"/>
<path d="M754.505 466.722C744.87 466.722 736.161 464.499 728.378 460.052C720.719 455.481 714.604 449.304 710.033 441.521C705.586 433.739 703.362 424.968 703.362 415.209C703.362 405.45 705.401 396.74 709.477 389.081C713.677 381.299 719.36 375.184 726.525 370.737C733.69 366.166 741.781 363.88 750.799 363.88C758.088 363.88 764.82 365.425 770.997 368.513C777.174 371.478 782.362 375.554 786.562 380.743V330.712C786.562 327.87 787.427 325.585 789.157 323.855C791.01 322.126 793.295 321.261 796.013 321.261C798.854 321.261 801.139 322.126 802.869 323.855C804.598 325.585 805.463 327.87 805.463 330.712V415.209C805.463 424.968 803.178 433.739 798.607 441.521C794.16 449.304 788.107 455.481 780.448 460.052C772.788 464.499 764.141 466.722 754.505 466.722ZM754.505 450.045C760.806 450.045 766.426 448.563 771.368 445.598C776.309 442.51 780.201 438.31 783.042 432.998C785.883 427.686 787.304 421.756 787.304 415.209C787.304 408.538 785.883 402.608 783.042 397.42C780.201 392.231 776.309 388.155 771.368 385.19C766.426 382.102 760.806 380.557 754.505 380.557C748.329 380.557 742.708 382.102 737.643 385.19C732.702 388.155 728.749 392.231 725.784 397.42C722.942 402.608 721.522 408.538 721.522 415.209C721.522 421.756 722.942 427.686 725.784 432.998C728.749 438.31 732.702 442.51 737.643 445.598C742.708 448.563 748.329 450.045 754.505 450.045Z" fill="#010111"/>
<path d="M886.463 466.722C876.21 466.722 867.068 464.561 859.038 460.237C851.132 455.79 844.894 449.736 840.323 442.077C835.876 434.295 833.652 425.4 833.652 415.394C833.652 405.264 835.752 396.37 839.952 388.711C844.276 380.928 850.206 374.875 857.741 370.551C865.277 366.104 873.924 363.88 883.683 363.88C893.319 363.88 901.596 366.042 908.514 370.366C915.432 374.566 920.682 380.434 924.264 387.97C927.97 395.382 929.823 403.967 929.823 413.726C929.823 416.073 929.02 418.05 927.414 419.656C925.808 421.138 923.77 421.88 921.299 421.88H846.623V407.055H920.744L913.146 412.244C913.023 406.067 911.787 400.57 909.44 395.752C907.093 390.811 903.758 386.919 899.434 384.078C895.11 381.237 889.86 379.816 883.683 379.816C876.642 379.816 870.589 381.36 865.524 384.449C860.582 387.537 856.815 391.799 854.221 397.235C851.626 402.547 850.329 408.6 850.329 415.394C850.329 422.188 851.873 428.242 854.962 433.554C858.05 438.865 862.312 443.066 867.747 446.154C873.183 449.242 879.421 450.786 886.463 450.786C890.292 450.786 894.184 450.107 898.137 448.748C902.213 447.266 905.487 445.598 907.958 443.745C909.811 442.386 911.787 441.707 913.887 441.707C916.111 441.583 918.026 442.201 919.632 443.56C921.732 445.413 922.844 447.451 922.967 449.675C923.091 451.898 922.102 453.813 920.002 455.419C915.802 458.754 910.552 461.472 904.252 463.572C898.075 465.672 892.145 466.722 886.463 466.722Z" fill="#010111"/>
<defs>
<linearGradient id="paint0_linear_109_3779" x1="504.716" y1="0" x2="504.716" y2="258.538" gradientUnits="userSpaceOnUse">
<stop stop-color="#FC4481"/>
<stop offset="0.5" stop-color="#FD76A2"/>
<stop offset="1" stop-color="#FFBFD6"/>
</linearGradient>
<linearGradient id="paint1_linear_109_3779" x1="504.716" y1="0" x2="504.716" y2="258.538" gradientUnits="userSpaceOnUse">
<stop stop-color="#F91697"/>
<stop offset="0.5" stop-color="#FF5F8F"/>
<stop offset="0.75" stop-color="#EC0192"/>
<stop offset="1" stop-color="#FEA28B"/>
</linearGradient>
<linearGradient id="paint2_linear_109_3779" x1="504.716" y1="0" x2="504.716" y2="258.538" gradientUnits="userSpaceOnUse">
<stop stop-color="#FC4481"/>
<stop offset="0.5" stop-color="#FD76A2"/>
<stop offset="1" stop-color="#FFBFD6"/>
</linearGradient>
<linearGradient id="paint3_linear_109_3779" x1="504.716" y1="0" x2="504.716" y2="258.538" gradientUnits="userSpaceOnUse">
<stop stop-color="#F91697"/>
<stop offset="0.5" stop-color="#FF5F8F"/>
<stop offset="0.75" stop-color="#EC0192"/>
<stop offset="1" stop-color="#FEA28B"/>
</linearGradient>
<linearGradient id="paint4_linear_109_3779" x1="504.716" y1="0" x2="504.716" y2="258.538" gradientUnits="userSpaceOnUse">
<stop stop-color="#FC4481"/>
<stop offset="0.5" stop-color="#FD76A2"/>
<stop offset="1" stop-color="#FFBFD6"/>
</linearGradient>
<linearGradient id="paint5_linear_109_3779" x1="504.716" y1="0" x2="504.716" y2="258.538" gradientUnits="userSpaceOnUse">
<stop stop-color="#F91697"/>
<stop offset="0.5" stop-color="#FF5F8F"/>
<stop offset="0.75" stop-color="#EC0192"/>
<stop offset="1" stop-color="#FEA28B"/>
</linearGradient>
<linearGradient id="paint6_linear_109_3779" x1="504.716" y1="0" x2="504.716" y2="258.538" gradientUnits="userSpaceOnUse">
<stop stop-color="#FC4481"/>
<stop offset="0.5" stop-color="#FD76A2"/>
<stop offset="1" stop-color="#FFBFD6"/>
</linearGradient>
<linearGradient id="paint7_linear_109_3779" x1="504.716" y1="0" x2="504.716" y2="258.538" gradientUnits="userSpaceOnUse">
<stop stop-color="#F91697"/>
<stop offset="0.5" stop-color="#FF5F8F"/>
<stop offset="0.75" stop-color="#EC0192"/>
<stop offset="1" stop-color="#FEA28B"/>
</linearGradient>
<linearGradient id="paint8_linear_109_3779" x1="504.716" y1="0" x2="504.716" y2="258.538" gradientUnits="userSpaceOnUse">
<stop stop-color="#FC4481"/>
<stop offset="0.5" stop-color="#FD76A2"/>
<stop offset="1" stop-color="#FFBFD6"/>
</linearGradient>
<linearGradient id="paint9_linear_109_3779" x1="504.716" y1="0" x2="504.716" y2="258.538" gradientUnits="userSpaceOnUse">
<stop stop-color="#F91697"/>
<stop offset="0.5" stop-color="#FF5F8F"/>
<stop offset="0.75" stop-color="#EC0192"/>
<stop offset="1" stop-color="#FEA28B"/>
</linearGradient>
<linearGradient id="paint10_linear_109_3779" x1="504.716" y1="0" x2="504.716" y2="258.538" gradientUnits="userSpaceOnUse">
<stop stop-color="#FC4481"/>
<stop offset="0.5" stop-color="#FD76A2"/>
<stop offset="1" stop-color="#FFBFD6"/>
</linearGradient>
<linearGradient id="paint11_linear_109_3779" x1="504.716" y1="0" x2="504.716" y2="258.538" gradientUnits="userSpaceOnUse">
<stop stop-color="#F91697"/>
<stop offset="0.5" stop-color="#FF5F8F"/>
<stop offset="0.75" stop-color="#EC0192"/>
<stop offset="1" stop-color="#FEA28B"/>
</linearGradient>
<linearGradient id="paint12_linear_109_3779" x1="504.716" y1="0" x2="504.716" y2="258.538" gradientUnits="userSpaceOnUse">
<stop stop-color="#FC4481"/>
<stop offset="0.5" stop-color="#FD76A2"/>
<stop offset="1" stop-color="#FFBFD6"/>
</linearGradient>
<linearGradient id="paint13_linear_109_3779" x1="504.716" y1="0" x2="504.716" y2="258.538" gradientUnits="userSpaceOnUse">
<stop stop-color="#F91697"/>
<stop offset="0.5" stop-color="#FF5F8F"/>
<stop offset="0.75" stop-color="#EC0192"/>
<stop offset="1" stop-color="#FEA28B"/>
</linearGradient>
<linearGradient id="paint14_linear_109_3779" x1="504.716" y1="0" x2="504.716" y2="258.538" gradientUnits="userSpaceOnUse">
<stop stop-color="#FC4481"/>
<stop offset="0.5" stop-color="#FD76A2"/>
<stop offset="1" stop-color="#FFBFD6"/>
</linearGradient>
<linearGradient id="paint15_linear_109_3779" x1="504.716" y1="0" x2="504.716" y2="258.538" gradientUnits="userSpaceOnUse">
<stop stop-color="#F91697"/>
<stop offset="0.5" stop-color="#FF5F8F"/>
<stop offset="0.75" stop-color="#EC0192"/>
<stop offset="1" stop-color="#FEA28B"/>
</linearGradient>
<linearGradient id="paint16_linear_109_3779" x1="504.716" y1="0" x2="504.716" y2="258.538" gradientUnits="userSpaceOnUse">
<stop stop-color="#FC4481"/>
<stop offset="0.5" stop-color="#FD76A2"/>
<stop offset="1" stop-color="#FFBFD6"/>
</linearGradient>
<linearGradient id="paint17_linear_109_3779" x1="504.716" y1="0" x2="504.716" y2="258.538" gradientUnits="userSpaceOnUse">
<stop stop-color="#F91697"/>
<stop offset="0.5" stop-color="#FF5F8F"/>
<stop offset="0.75" stop-color="#EC0192"/>
<stop offset="1" stop-color="#FEA28B"/>
</linearGradient>
</defs>
</svg>
