<svg width="1470" height="257" viewBox="0 0 1470 257" fill="none" xmlns="http://www.w3.org/2000/svg">
<path d="M123.667 256.625C106.366 256.625 90.1338 253.421 74.9691 247.014C60.018 240.392 46.8824 231.315 35.5623 219.781C24.4557 208.034 15.6987 194.364 9.29104 178.772C3.09701 163.181 0 146.307 0 128.152C0 110.211 3.09701 93.5512 9.29104 78.1729C15.6987 62.5811 24.4557 49.0183 35.5623 37.4846C46.8824 25.7373 60.018 16.553 74.9691 9.93179C89.9202 3.3106 106.153 0 123.667 0C140.113 0 154.21 2.13587 165.957 6.40761C177.918 10.6793 189.879 17.7277 201.84 27.5527C203.549 28.8343 204.83 30.2226 205.684 31.7177C206.752 32.9992 207.393 34.3875 207.607 35.8826C208.034 37.1642 208.248 38.7661 208.248 40.6884C208.248 44.7465 206.752 48.1639 203.762 50.9405C200.986 53.5036 197.568 54.9987 193.51 55.4259C189.452 55.6395 185.501 54.2511 181.656 51.2609C173.753 44.4261 165.53 39.1932 156.987 35.5623C148.657 31.9313 137.55 30.1158 123.667 30.1158C111.065 30.1158 99.2113 32.6788 88.1047 37.8049C76.9982 42.931 67.1732 49.9794 58.6297 58.9501C50.2998 67.9207 43.7854 78.3865 39.0865 90.3474C34.3875 102.095 32.0381 114.696 32.0381 128.152C32.0381 141.822 34.3875 154.637 39.0865 166.598C43.7854 178.345 50.2998 188.704 58.6297 197.675C67.1732 206.646 76.9982 213.694 88.1047 218.82C99.2113 223.733 111.065 226.189 123.667 226.189C134.56 226.189 144.812 224.373 154.424 220.742C164.249 216.898 173.646 211.665 182.617 205.044C186.462 202.267 190.199 201.092 193.83 201.52C197.675 201.733 200.879 203.228 203.442 206.005C206.005 208.568 207.286 212.199 207.286 216.898C207.286 219.034 206.859 221.17 206.005 223.305C205.151 225.228 203.869 227.043 202.16 228.752C190.627 237.936 178.239 244.878 164.996 249.577C151.967 254.276 138.191 256.625 123.667 256.625Z" fill="white"/>
<path d="M123.667 256.625C106.366 256.625 90.1338 253.421 74.9691 247.014C60.018 240.392 46.8824 231.315 35.5623 219.781C24.4557 208.034 15.6987 194.364 9.29104 178.772C3.09701 163.181 0 146.307 0 128.152C0 110.211 3.09701 93.5512 9.29104 78.1729C15.6987 62.5811 24.4557 49.0183 35.5623 37.4846C46.8824 25.7373 60.018 16.553 74.9691 9.93179C89.9202 3.3106 106.153 0 123.667 0C140.113 0 154.21 2.13587 165.957 6.40761C177.918 10.6793 189.879 17.7277 201.84 27.5527C203.549 28.8343 204.83 30.2226 205.684 31.7177C206.752 32.9992 207.393 34.3875 207.607 35.8826C208.034 37.1642 208.248 38.7661 208.248 40.6884C208.248 44.7465 206.752 48.1639 203.762 50.9405C200.986 53.5036 197.568 54.9987 193.51 55.4259C189.452 55.6395 185.501 54.2511 181.656 51.2609C173.753 44.4261 165.53 39.1932 156.987 35.5623C148.657 31.9313 137.55 30.1158 123.667 30.1158C111.065 30.1158 99.2113 32.6788 88.1047 37.8049C76.9982 42.931 67.1732 49.9794 58.6297 58.9501C50.2998 67.9207 43.7854 78.3865 39.0865 90.3474C34.3875 102.095 32.0381 114.696 32.0381 128.152C32.0381 141.822 34.3875 154.637 39.0865 166.598C43.7854 178.345 50.2998 188.704 58.6297 197.675C67.1732 206.646 76.9982 213.694 88.1047 218.82C99.2113 223.733 111.065 226.189 123.667 226.189C134.56 226.189 144.812 224.373 154.424 220.742C164.249 216.898 173.646 211.665 182.617 205.044C186.462 202.267 190.199 201.092 193.83 201.52C197.675 201.733 200.879 203.228 203.442 206.005C206.005 208.568 207.286 212.199 207.286 216.898C207.286 219.034 206.859 221.17 206.005 223.305C205.151 225.228 203.869 227.043 202.16 228.752C190.627 237.936 178.239 244.878 164.996 249.577C151.967 254.276 138.191 256.625 123.667 256.625Z" fill="url(#paint0_linear_109_3519)"/>
<path d="M317.595 254.703C302.003 254.703 288.013 250.858 275.625 243.169C263.237 235.266 253.412 224.694 246.15 211.451C239.102 197.995 235.578 182.831 235.578 165.957C235.578 149.084 239.422 133.919 247.111 120.463C255.014 107.007 265.587 96.4346 278.829 88.7455C292.285 80.8428 307.343 76.8914 324.003 76.8914C340.662 76.8914 355.614 80.8428 368.856 88.7455C382.098 96.4346 392.564 107.007 400.253 120.463C408.156 133.919 412.107 149.084 412.107 165.957H399.613C399.613 182.831 395.982 197.995 388.72 211.451C381.671 224.694 371.953 235.266 359.565 243.169C347.177 250.858 333.187 254.703 317.595 254.703ZM324.003 225.868C334.896 225.868 344.614 223.305 353.157 218.179C361.701 212.84 368.429 205.684 373.341 196.714C378.254 187.53 380.71 177.277 380.71 165.957C380.71 154.424 378.254 144.171 373.341 135.201C368.429 126.016 361.701 118.861 353.157 113.735C344.614 108.396 334.896 105.726 324.003 105.726C313.323 105.726 303.605 108.396 294.848 113.735C286.304 118.861 279.47 126.016 274.344 135.201C269.431 144.171 266.975 154.424 266.975 165.957C266.975 177.277 269.431 187.53 274.344 196.714C279.47 205.684 286.304 212.84 294.848 218.179C303.605 223.305 313.323 225.868 324.003 225.868ZM395.768 253.742C391.069 253.742 387.118 252.247 383.914 249.256C380.924 246.052 379.428 242.101 379.428 237.402V188.384L385.516 154.424L412.107 165.957V237.402C412.107 242.101 410.505 246.052 407.302 249.256C404.311 252.247 400.467 253.742 395.768 253.742Z" fill="white"/>
<path d="M317.595 254.703C302.003 254.703 288.013 250.858 275.625 243.169C263.237 235.266 253.412 224.694 246.15 211.451C239.102 197.995 235.578 182.831 235.578 165.957C235.578 149.084 239.422 133.919 247.111 120.463C255.014 107.007 265.587 96.4346 278.829 88.7455C292.285 80.8428 307.343 76.8914 324.003 76.8914C340.662 76.8914 355.614 80.8428 368.856 88.7455C382.098 96.4346 392.564 107.007 400.253 120.463C408.156 133.919 412.107 149.084 412.107 165.957H399.613C399.613 182.831 395.982 197.995 388.72 211.451C381.671 224.694 371.953 235.266 359.565 243.169C347.177 250.858 333.187 254.703 317.595 254.703ZM324.003 225.868C334.896 225.868 344.614 223.305 353.157 218.179C361.701 212.84 368.429 205.684 373.341 196.714C378.254 187.53 380.71 177.277 380.71 165.957C380.71 154.424 378.254 144.171 373.341 135.201C368.429 126.016 361.701 118.861 353.157 113.735C344.614 108.396 334.896 105.726 324.003 105.726C313.323 105.726 303.605 108.396 294.848 113.735C286.304 118.861 279.47 126.016 274.344 135.201C269.431 144.171 266.975 154.424 266.975 165.957C266.975 177.277 269.431 187.53 274.344 196.714C279.47 205.684 286.304 212.84 294.848 218.179C303.605 223.305 313.323 225.868 324.003 225.868ZM395.768 253.742C391.069 253.742 387.118 252.247 383.914 249.256C380.924 246.052 379.428 242.101 379.428 237.402V188.384L385.516 154.424L412.107 165.957V237.402C412.107 242.101 410.505 246.052 407.302 249.256C404.311 252.247 400.467 253.742 395.768 253.742Z" fill="url(#paint1_linear_109_3519)"/>
<path d="M502.392 253.421C492.994 253.421 484.664 250.858 477.402 245.732C470.141 240.606 464.48 233.664 460.422 224.907C456.364 215.937 454.335 205.684 454.335 194.151V19.2229C454.335 14.5239 455.83 10.6794 458.82 7.68914C461.811 4.69892 465.655 3.2038 470.354 3.2038C475.053 3.2038 478.898 4.69892 481.888 7.68914C484.878 10.6794 486.373 14.5239 486.373 19.2229V194.151C486.373 202.054 487.868 208.568 490.858 213.694C493.849 218.82 497.693 221.383 502.392 221.383H510.402C514.673 221.383 518.091 222.878 520.654 225.868C523.431 228.859 524.819 232.703 524.819 237.402C524.819 242.101 522.79 245.946 518.732 248.936C514.673 251.926 509.441 253.421 503.033 253.421H502.392Z" fill="white"/>
<path d="M502.392 253.421C492.994 253.421 484.664 250.858 477.402 245.732C470.141 240.606 464.48 233.664 460.422 224.907C456.364 215.937 454.335 205.684 454.335 194.151V19.2229C454.335 14.5239 455.83 10.6794 458.82 7.68914C461.811 4.69892 465.655 3.2038 470.354 3.2038C475.053 3.2038 478.898 4.69892 481.888 7.68914C484.878 10.6794 486.373 14.5239 486.373 19.2229V194.151C486.373 202.054 487.868 208.568 490.858 213.694C493.849 218.82 497.693 221.383 502.392 221.383H510.402C514.673 221.383 518.091 222.878 520.654 225.868C523.431 228.859 524.819 232.703 524.819 237.402C524.819 242.101 522.79 245.946 518.732 248.936C514.673 251.926 509.441 253.421 503.033 253.421H502.392Z" fill="url(#paint2_linear_109_3519)"/>
<path d="M598.444 253.421C589.046 253.421 580.716 250.858 573.454 245.732C566.192 240.606 560.532 233.664 556.474 224.907C552.416 215.937 550.387 205.684 550.387 194.151V19.2229C550.387 14.5239 551.882 10.6794 554.872 7.68914C557.862 4.69892 561.707 3.2038 566.406 3.2038C571.105 3.2038 574.949 4.69892 577.939 7.68914C580.93 10.6794 582.425 14.5239 582.425 19.2229V194.151C582.425 202.054 583.92 208.568 586.91 213.694C589.9 218.82 593.745 221.383 598.444 221.383H606.453C610.725 221.383 614.143 222.878 616.706 225.868C619.482 228.859 620.87 232.703 620.87 237.402C620.87 242.101 618.841 245.946 614.783 248.936C610.725 251.926 605.492 253.421 599.085 253.421H598.444Z" fill="white"/>
<path d="M598.444 253.421C589.046 253.421 580.716 250.858 573.454 245.732C566.192 240.606 560.532 233.664 556.474 224.907C552.416 215.937 550.387 205.684 550.387 194.151V19.2229C550.387 14.5239 551.882 10.6794 554.872 7.68914C557.862 4.69892 561.707 3.2038 566.406 3.2038C571.105 3.2038 574.949 4.69892 577.939 7.68914C580.93 10.6794 582.425 14.5239 582.425 19.2229V194.151C582.425 202.054 583.92 208.568 586.91 213.694C589.9 218.82 593.745 221.383 598.444 221.383H606.453C610.725 221.383 614.143 222.878 616.706 225.868C619.482 228.859 620.87 232.703 620.87 237.402C620.87 242.101 618.841 245.946 614.783 248.936C610.725 251.926 605.492 253.421 599.085 253.421H598.444Z" fill="url(#paint3_linear_109_3519)"/>
<path d="M800.862 253.742C796.163 253.742 792.212 252.247 789.008 249.256C786.018 246.052 784.523 242.101 784.523 237.402V158.589C784.523 146.414 782.28 136.482 777.795 128.793C773.309 121.104 767.222 115.444 759.533 111.813C752.057 107.968 743.407 106.046 733.582 106.046C724.611 106.046 716.495 107.862 709.233 111.493C701.971 115.124 696.204 120.036 691.932 126.23C687.661 132.21 685.525 139.152 685.525 147.055H665.341C665.341 133.599 668.545 121.638 674.952 111.172C681.573 100.493 690.544 92.0561 701.864 85.8621C713.184 79.668 725.893 76.571 739.99 76.571C754.727 76.571 767.863 79.7748 779.396 86.1824C791.144 92.3765 800.328 101.561 806.949 113.735C813.784 125.91 817.201 140.861 817.201 158.589V237.402C817.201 242.101 815.599 246.052 812.396 249.256C809.405 252.247 805.561 253.742 800.862 253.742ZM669.185 253.742C664.487 253.742 660.535 252.247 657.331 249.256C654.341 246.052 652.846 242.101 652.846 237.402V94.5123C652.846 89.5998 654.341 85.6485 657.331 82.6582C660.535 79.668 664.487 78.1729 669.185 78.1729C674.098 78.1729 678.049 79.668 681.039 82.6582C684.03 85.6485 685.525 89.5998 685.525 94.5123V237.402C685.525 242.101 684.03 246.052 681.039 249.256C678.049 252.247 674.098 253.742 669.185 253.742Z" fill="white"/>
<path d="M800.862 253.742C796.163 253.742 792.212 252.247 789.008 249.256C786.018 246.052 784.523 242.101 784.523 237.402V158.589C784.523 146.414 782.28 136.482 777.795 128.793C773.309 121.104 767.222 115.444 759.533 111.813C752.057 107.968 743.407 106.046 733.582 106.046C724.611 106.046 716.495 107.862 709.233 111.493C701.971 115.124 696.204 120.036 691.932 126.23C687.661 132.21 685.525 139.152 685.525 147.055H665.341C665.341 133.599 668.545 121.638 674.952 111.172C681.573 100.493 690.544 92.0561 701.864 85.8621C713.184 79.668 725.893 76.571 739.99 76.571C754.727 76.571 767.863 79.7748 779.396 86.1824C791.144 92.3765 800.328 101.561 806.949 113.735C813.784 125.91 817.201 140.861 817.201 158.589V237.402C817.201 242.101 815.599 246.052 812.396 249.256C809.405 252.247 805.561 253.742 800.862 253.742ZM669.185 253.742C664.487 253.742 660.535 252.247 657.331 249.256C654.341 246.052 652.846 242.101 652.846 237.402V94.5123C652.846 89.5998 654.341 85.6485 657.331 82.6582C660.535 79.668 664.487 78.1729 669.185 78.1729C674.098 78.1729 678.049 79.668 681.039 82.6582C684.03 85.6485 685.525 89.5998 685.525 94.5123V237.402C685.525 242.101 684.03 246.052 681.039 249.256C678.049 252.247 674.098 253.742 669.185 253.742Z" fill="url(#paint4_linear_109_3519)"/>
<path d="M944.277 254.703C928.686 254.703 914.696 250.858 902.307 243.169C889.919 235.266 880.094 224.694 872.833 211.451C865.784 197.995 862.26 182.831 862.26 165.957C862.26 149.084 866.105 133.919 873.794 120.463C881.696 107.007 892.269 96.4346 905.511 88.7455C918.967 80.8428 934.025 76.8914 950.685 76.8914C967.345 76.8914 982.296 80.8428 995.538 88.7455C1008.78 96.4346 1019.25 107.007 1026.94 120.463C1034.84 133.919 1038.79 149.084 1038.79 165.957H1026.29C1026.29 182.831 1022.66 197.995 1015.4 211.451C1008.35 224.694 998.635 235.266 986.247 243.169C973.859 250.858 959.869 254.703 944.277 254.703ZM950.685 225.868C961.578 225.868 971.296 223.305 979.84 218.179C988.383 212.84 995.111 205.684 1000.02 196.714C1004.94 187.53 1007.39 177.277 1007.39 165.957C1007.39 154.424 1004.94 144.171 1000.02 135.201C995.111 126.016 988.383 118.861 979.84 113.735C971.296 108.396 961.578 105.726 950.685 105.726C940.006 105.726 930.287 108.396 921.53 113.735C912.987 118.861 906.152 126.016 901.026 135.201C896.114 144.171 893.657 154.424 893.657 165.957C893.657 177.277 896.114 187.53 901.026 196.714C906.152 205.684 912.987 212.84 921.53 218.179C930.287 223.305 940.006 225.868 950.685 225.868ZM1022.45 253.742C1017.75 253.742 1013.8 252.247 1010.6 249.256C1007.61 246.052 1006.11 242.101 1006.11 237.402V188.384L1012.2 154.424L1038.79 165.957V237.402C1038.79 242.101 1037.19 246.052 1033.98 249.256C1030.99 252.247 1027.15 253.742 1022.45 253.742Z" fill="white"/>
<path d="M944.277 254.703C928.686 254.703 914.696 250.858 902.307 243.169C889.919 235.266 880.094 224.694 872.833 211.451C865.784 197.995 862.26 182.831 862.26 165.957C862.26 149.084 866.105 133.919 873.794 120.463C881.696 107.007 892.269 96.4346 905.511 88.7455C918.967 80.8428 934.025 76.8914 950.685 76.8914C967.345 76.8914 982.296 80.8428 995.538 88.7455C1008.78 96.4346 1019.25 107.007 1026.94 120.463C1034.84 133.919 1038.79 149.084 1038.79 165.957H1026.29C1026.29 182.831 1022.66 197.995 1015.4 211.451C1008.35 224.694 998.635 235.266 986.247 243.169C973.859 250.858 959.869 254.703 944.277 254.703ZM950.685 225.868C961.578 225.868 971.296 223.305 979.84 218.179C988.383 212.84 995.111 205.684 1000.02 196.714C1004.94 187.53 1007.39 177.277 1007.39 165.957C1007.39 154.424 1004.94 144.171 1000.02 135.201C995.111 126.016 988.383 118.861 979.84 113.735C971.296 108.396 961.578 105.726 950.685 105.726C940.006 105.726 930.287 108.396 921.53 113.735C912.987 118.861 906.152 126.016 901.026 135.201C896.114 144.171 893.657 154.424 893.657 165.957C893.657 177.277 896.114 187.53 901.026 196.714C906.152 205.684 912.987 212.84 921.53 218.179C930.287 223.305 940.006 225.868 950.685 225.868ZM1022.45 253.742C1017.75 253.742 1013.8 252.247 1010.6 249.256C1007.61 246.052 1006.11 242.101 1006.11 237.402V188.384L1012.2 154.424L1038.79 165.957V237.402C1038.79 242.101 1037.19 246.052 1033.98 249.256C1030.99 252.247 1027.15 253.742 1022.45 253.742Z" fill="url(#paint5_linear_109_3519)"/>
<path d="M1166.88 254.703C1150.22 254.703 1135.16 250.858 1121.71 243.169C1108.46 235.266 1097.89 224.587 1089.99 211.131C1082.3 197.675 1078.45 182.51 1078.45 165.637C1078.45 148.763 1081.98 133.706 1089.03 120.463C1096.29 107.007 1106.11 96.4346 1118.5 88.7455C1130.89 80.8428 1144.88 76.8914 1160.47 76.8914C1173.07 76.8914 1184.71 79.5612 1195.39 84.9009C1206.07 90.027 1215.04 97.0754 1222.31 106.046V19.5432C1222.31 14.6307 1223.8 10.6794 1226.79 7.68914C1229.99 4.69892 1233.95 3.2038 1238.64 3.2038C1243.56 3.2038 1247.51 4.69892 1250.5 7.68914C1253.49 10.6794 1254.98 14.6307 1254.98 19.5432V165.637C1254.98 182.51 1251.03 197.675 1243.13 211.131C1235.44 224.587 1224.98 235.266 1211.73 243.169C1198.49 250.858 1183.54 254.703 1166.88 254.703ZM1166.88 225.868C1177.77 225.868 1187.49 223.305 1196.03 218.179C1204.58 212.84 1211.31 205.578 1216.22 196.393C1221.13 187.209 1223.59 176.957 1223.59 165.637C1223.59 154.103 1221.13 143.851 1216.22 134.88C1211.31 125.91 1204.58 118.861 1196.03 113.735C1187.49 108.396 1177.77 105.726 1166.88 105.726C1156.2 105.726 1146.48 108.396 1137.72 113.735C1129.18 118.861 1122.35 125.91 1117.22 134.88C1112.31 143.851 1109.85 154.103 1109.85 165.637C1109.85 176.957 1112.31 187.209 1117.22 196.393C1122.35 205.578 1129.18 212.84 1137.72 218.179C1146.48 223.305 1156.2 225.868 1166.88 225.868Z" fill="white"/>
<path d="M1166.88 254.703C1150.22 254.703 1135.16 250.858 1121.71 243.169C1108.46 235.266 1097.89 224.587 1089.99 211.131C1082.3 197.675 1078.45 182.51 1078.45 165.637C1078.45 148.763 1081.98 133.706 1089.03 120.463C1096.29 107.007 1106.11 96.4346 1118.5 88.7455C1130.89 80.8428 1144.88 76.8914 1160.47 76.8914C1173.07 76.8914 1184.71 79.5612 1195.39 84.9009C1206.07 90.027 1215.04 97.0754 1222.31 106.046V19.5432C1222.31 14.6307 1223.8 10.6794 1226.79 7.68914C1229.99 4.69892 1233.95 3.2038 1238.64 3.2038C1243.56 3.2038 1247.51 4.69892 1250.5 7.68914C1253.49 10.6794 1254.98 14.6307 1254.98 19.5432V165.637C1254.98 182.51 1251.03 197.675 1243.13 211.131C1235.44 224.587 1224.98 235.266 1211.73 243.169C1198.49 250.858 1183.54 254.703 1166.88 254.703ZM1166.88 225.868C1177.77 225.868 1187.49 223.305 1196.03 218.179C1204.58 212.84 1211.31 205.578 1216.22 196.393C1221.13 187.209 1223.59 176.957 1223.59 165.637C1223.59 154.103 1221.13 143.851 1216.22 134.88C1211.31 125.91 1204.58 118.861 1196.03 113.735C1187.49 108.396 1177.77 105.726 1166.88 105.726C1156.2 105.726 1146.48 108.396 1137.72 113.735C1129.18 118.861 1122.35 125.91 1117.22 134.88C1112.31 143.851 1109.85 154.103 1109.85 165.637C1109.85 176.957 1112.31 187.209 1117.22 196.393C1122.35 205.578 1129.18 212.84 1137.72 218.179C1146.48 223.305 1156.2 225.868 1166.88 225.868Z" fill="url(#paint6_linear_109_3519)"/>
<path d="M1395.03 254.703C1377.3 254.703 1361.5 250.965 1347.61 243.489C1333.94 235.8 1323.16 225.335 1315.26 212.092C1307.57 198.636 1303.72 183.258 1303.72 165.957C1303.72 148.443 1307.35 133.065 1314.62 119.822C1322.09 106.366 1332.34 95.9007 1345.37 88.4251C1358.4 80.736 1373.35 76.8914 1390.23 76.8914C1406.88 76.8914 1421.2 80.6292 1433.16 88.1047C1445.12 95.3667 1454.19 105.512 1460.39 118.541C1466.8 131.356 1470 146.2 1470 163.074C1470 167.132 1468.61 170.549 1465.83 173.326C1463.06 175.889 1459.53 177.171 1455.26 177.171H1326.15V151.54H1454.3L1441.17 160.511C1440.95 149.831 1438.82 140.327 1434.76 131.997C1430.7 123.453 1424.93 116.725 1417.46 111.813C1409.98 106.9 1400.9 104.444 1390.23 104.444C1378.05 104.444 1367.58 107.114 1358.83 112.454C1350.28 117.793 1343.77 125.162 1339.28 134.56C1334.8 143.744 1332.56 154.21 1332.56 165.957C1332.56 177.705 1335.23 188.17 1340.57 197.355C1345.91 206.539 1353.27 213.801 1362.67 219.14C1372.07 224.48 1382.86 227.15 1395.03 227.15C1401.65 227.15 1408.38 225.975 1415.21 223.626C1422.26 221.063 1427.92 218.179 1432.2 214.976C1435.4 212.626 1438.82 211.451 1442.45 211.451C1446.29 211.238 1449.6 212.306 1452.38 214.655C1456.01 217.859 1457.93 221.383 1458.15 225.228C1458.36 229.072 1456.65 232.383 1453.02 235.16C1445.76 240.926 1436.68 245.625 1425.79 249.256C1415.11 252.887 1404.86 254.703 1395.03 254.703Z" fill="white"/>
<path d="M1395.03 254.703C1377.3 254.703 1361.5 250.965 1347.61 243.489C1333.94 235.8 1323.16 225.335 1315.26 212.092C1307.57 198.636 1303.72 183.258 1303.72 165.957C1303.72 148.443 1307.35 133.065 1314.62 119.822C1322.09 106.366 1332.34 95.9007 1345.37 88.4251C1358.4 80.736 1373.35 76.8914 1390.23 76.8914C1406.88 76.8914 1421.2 80.6292 1433.16 88.1047C1445.12 95.3667 1454.19 105.512 1460.39 118.541C1466.8 131.356 1470 146.2 1470 163.074C1470 167.132 1468.61 170.549 1465.83 173.326C1463.06 175.889 1459.53 177.171 1455.26 177.171H1326.15V151.54H1454.3L1441.17 160.511C1440.95 149.831 1438.82 140.327 1434.76 131.997C1430.7 123.453 1424.93 116.725 1417.46 111.813C1409.98 106.9 1400.9 104.444 1390.23 104.444C1378.05 104.444 1367.58 107.114 1358.83 112.454C1350.28 117.793 1343.77 125.162 1339.28 134.56C1334.8 143.744 1332.56 154.21 1332.56 165.957C1332.56 177.705 1335.23 188.17 1340.57 197.355C1345.91 206.539 1353.27 213.801 1362.67 219.14C1372.07 224.48 1382.86 227.15 1395.03 227.15C1401.65 227.15 1408.38 225.975 1415.21 223.626C1422.26 221.063 1427.92 218.179 1432.2 214.976C1435.4 212.626 1438.82 211.451 1442.45 211.451C1446.29 211.238 1449.6 212.306 1452.38 214.655C1456.01 217.859 1457.93 221.383 1458.15 225.228C1458.36 229.072 1456.65 232.383 1453.02 235.16C1445.76 240.926 1436.68 245.625 1425.79 249.256C1415.11 252.887 1404.86 254.703 1395.03 254.703Z" fill="url(#paint7_linear_109_3519)"/>
<defs>
<linearGradient id="paint0_linear_109_3519" x1="735" y1="0" x2="735" y2="256.625" gradientUnits="userSpaceOnUse">
<stop stop-color="#FB0473"/>
<stop offset="1" stop-color="#FD8320"/>
</linearGradient>
<linearGradient id="paint1_linear_109_3519" x1="735" y1="0" x2="735" y2="256.625" gradientUnits="userSpaceOnUse">
<stop stop-color="#FB0473"/>
<stop offset="1" stop-color="#FD8320"/>
</linearGradient>
<linearGradient id="paint2_linear_109_3519" x1="735" y1="0" x2="735" y2="256.625" gradientUnits="userSpaceOnUse">
<stop stop-color="#FB0473"/>
<stop offset="1" stop-color="#FD8320"/>
</linearGradient>
<linearGradient id="paint3_linear_109_3519" x1="735" y1="0" x2="735" y2="256.625" gradientUnits="userSpaceOnUse">
<stop stop-color="#FB0473"/>
<stop offset="1" stop-color="#FD8320"/>
</linearGradient>
<linearGradient id="paint4_linear_109_3519" x1="735" y1="0" x2="735" y2="256.625" gradientUnits="userSpaceOnUse">
<stop stop-color="#FB0473"/>
<stop offset="1" stop-color="#FD8320"/>
</linearGradient>
<linearGradient id="paint5_linear_109_3519" x1="735" y1="0" x2="735" y2="256.625" gradientUnits="userSpaceOnUse">
<stop stop-color="#FB0473"/>
<stop offset="1" stop-color="#FD8320"/>
</linearGradient>
<linearGradient id="paint6_linear_109_3519" x1="735" y1="0" x2="735" y2="256.625" gradientUnits="userSpaceOnUse">
<stop stop-color="#FB0473"/>
<stop offset="1" stop-color="#FD8320"/>
</linearGradient>
<linearGradient id="paint7_linear_109_3519" x1="735" y1="0" x2="735" y2="256.625" gradientUnits="userSpaceOnUse">
<stop stop-color="#FB0473"/>
<stop offset="1" stop-color="#FD8320"/>
</linearGradient>
</defs>
</svg>
