<svg width="634" height="294" viewBox="0 0 634 294" fill="none" xmlns="http://www.w3.org/2000/svg">
<path d="M321.337 100.483C323.04 95.3011 323.482 92.2552 323.667 86.6946L324.444 94.851L321.337 100.483Z" fill="white"/>
<path d="M422.709 58.3417H445.624C449.7 58.3417 453.004 61.6456 453.004 65.7212V145.731C453.004 154.097 446.222 160.878 437.856 160.878C429.49 160.878 422.709 154.097 422.709 145.731V58.3417Z" fill="white"/>
<path d="M323.667 66.1096C323.667 61.8195 327.145 58.3417 331.435 58.3417H348.136C351.354 58.3417 353.962 60.9501 353.962 64.1676V75.0427C353.962 83.4085 347.181 90.1902 338.815 90.1902H323.667V66.1096Z" fill="white"/>
<path d="M323.667 80.0919C323.667 71.7262 330.449 64.9444 338.815 64.9444H353.962V94.0742C353.962 110.806 340.399 124.369 323.667 124.369V80.0919Z" fill="white"/>
<path d="M323.659 66.0122C323.587 57.4559 325.205 48.9733 328.42 41.0532C331.634 33.1332 336.382 25.9323 342.388 19.8658C348.394 13.7992 355.541 8.98692 363.417 5.70622C371.292 2.42553 379.74 0.741341 388.274 0.750729C396.808 0.760117 405.258 2.4629 413.139 5.76092C421.02 9.05895 428.175 13.887 434.191 19.9668C440.208 26.0466 444.967 33.2579 448.194 41.185C451.422 49.1121 453.054 57.5983 452.996 66.1545L422.775 65.892C422.806 61.3343 421.937 56.8138 420.217 52.5911C418.498 48.3685 415.963 44.5271 412.758 41.2885C409.553 38.0499 405.742 35.4781 401.544 33.7213C397.346 31.9645 392.844 31.0575 388.299 31.0525C383.753 31.0475 379.253 31.9446 375.058 33.6922C370.863 35.4397 367.056 38.0032 363.856 41.2348C360.657 44.4663 358.128 48.3021 356.415 52.521C354.703 56.7398 353.841 61.2584 353.879 65.8162L323.659 66.0122Z" fill="white"/>
<path d="M309.042 37.3992C316.122 30.5959 316.404 19.139 308.223 13.7099C301.838 9.47226 294.865 6.13165 287.498 3.80799C274.445 -0.30928 260.573 -1.10266 247.147 1.50025C233.721 4.10316 221.169 10.0195 210.636 18.7092C200.103 27.399 191.925 38.5855 186.848 51.2477C181.772 63.91 179.958 77.6448 181.572 91.1986C183.187 104.752 188.179 117.694 196.092 128.841C204.005 139.989 214.587 148.988 226.874 155.017C233.814 158.422 241.173 160.819 248.727 162.16C258.387 163.874 266.087 155.399 265.667 145.596C265.248 135.823 256.734 128.55 247.512 125.289C245.815 124.69 244.151 123.99 242.526 123.193C235.574 119.781 229.585 114.689 225.108 108.381C220.63 102.073 217.805 94.75 216.892 87.0802C215.978 79.4105 217.004 71.6384 219.877 64.4732C222.75 57.308 227.378 50.9779 233.338 46.0606C239.298 41.1433 246.401 37.7954 253.998 36.3225C261.596 34.8496 269.446 35.2986 276.832 37.6284C278.558 38.1728 280.246 38.8159 281.887 39.5528C290.811 43.558 301.99 44.1763 309.042 37.3992Z" fill="white"/>
<path d="M340.152 84.8662C348.536 85.3105 355.145 92.4846 353.261 100.666C349.762 115.86 341.992 129.787 330.738 140.68C319.586 151.476 305.652 158.673 290.668 161.574C282.308 163.192 275.339 156.155 275.283 147.64C275.227 139.012 282.391 132.225 290.591 129.54C297.601 127.244 304.07 123.373 309.481 118.134C314.984 112.807 319.143 106.31 321.717 99.18C324.612 91.163 331.64 84.4151 340.152 84.8662Z" fill="white"/>
<path d="M293.755 70.7835C289.132 70.5172 284.577 74.3664 282.771 76.434C282.706 76.5089 282.613 76.5509 282.514 76.5509C282.396 76.5509 282.286 76.489 282.223 76.3897C279.691 72.435 274.571 70.7835 271.586 70.7835C268.468 70.7836 264.332 72.1405 261.886 74.8546C251.494 86.3893 263.272 97.2455 264.658 98.6025C266.043 99.9595 280.592 112.512 281.285 112.851C281.977 113.19 283.017 113.19 284.056 112.851C284.887 112.58 295.487 103.239 300.683 98.6025C314.192 85.3715 304.147 75.8724 303.108 74.8546C302.068 73.8368 299.644 71.1228 293.755 70.7835Z" fill="white"/>
<path d="M327.564 92.8215L324.548 92.0731C323.104 94.5497 322.726 95.9322 322.984 98.3753L326 99.1236L327.564 92.8215Z" fill="white"/>
<path d="M94.9239 293.836C88.6392 293.836 82.7425 292.672 77.2337 290.345C71.8025 287.939 67.0308 284.642 62.9185 280.452C58.8839 276.185 55.7028 271.219 53.3751 265.555C51.125 259.891 50 253.762 50 247.167C50 240.649 51.125 234.597 53.3751 229.011C55.7028 223.347 58.8839 218.42 62.9185 214.23C67.0308 209.963 71.8025 206.626 77.2337 204.221C82.6649 201.816 88.5616 200.613 94.9239 200.613C100.898 200.613 106.019 201.389 110.287 202.941C114.631 204.493 118.976 207.053 123.321 210.622C123.942 211.088 124.408 211.592 124.718 212.135C125.106 212.601 125.339 213.105 125.416 213.648C125.572 214.114 125.649 214.696 125.649 215.394C125.649 216.868 125.106 218.11 124.02 219.118C123.011 220.049 121.77 220.592 120.295 220.748C118.821 220.825 117.386 220.321 115.989 219.235C113.119 216.752 110.131 214.851 107.028 213.532C104.002 212.213 99.9672 211.553 94.9239 211.553C90.3462 211.553 86.04 212.484 82.0054 214.346C77.9708 216.209 74.4017 218.769 71.2981 222.028C68.2722 225.287 65.9057 229.088 64.1988 233.433C62.4918 237.701 61.6383 242.278 61.6383 247.167C61.6383 252.132 62.4918 256.788 64.1988 261.133C65.9057 265.4 68.2722 269.163 71.2981 272.422C74.4017 275.68 77.9708 278.241 82.0054 280.103C86.04 281.888 90.3462 282.78 94.9239 282.78C98.881 282.78 102.605 282.12 106.097 280.801C109.666 279.405 113.08 277.504 116.338 275.099C117.735 274.09 119.093 273.663 120.412 273.818C121.808 273.896 122.972 274.439 123.903 275.448C124.834 276.379 125.3 277.698 125.3 279.405C125.3 280.181 125.145 280.956 124.834 281.732C124.524 282.431 124.059 283.09 123.438 283.711C119.248 287.047 114.748 289.569 109.937 291.276C105.204 292.983 100.2 293.836 94.9239 293.836Z" fill="white"/>
<path d="M165.371 293.138C159.707 293.138 154.625 291.741 150.125 288.948C145.625 286.077 142.056 282.237 139.418 277.426C136.857 272.538 135.577 267.029 135.577 260.9C135.577 254.77 136.974 249.261 139.767 244.373C142.638 239.485 146.478 235.645 151.289 232.851C156.177 229.981 161.647 228.545 167.699 228.545C173.751 228.545 179.182 229.981 183.993 232.851C188.803 235.645 192.605 239.485 195.398 244.373C198.269 249.261 199.704 254.77 199.704 260.9H195.165C195.165 267.029 193.846 272.538 191.208 277.426C188.648 282.237 185.118 286.077 180.617 288.948C176.117 291.741 171.035 293.138 165.371 293.138ZM167.699 282.663C171.656 282.663 175.186 281.732 178.29 279.87C181.393 277.931 183.837 275.331 185.622 272.073C187.406 268.736 188.299 265.012 188.299 260.9C188.299 256.71 187.406 252.986 185.622 249.727C183.837 246.391 181.393 243.791 178.29 241.929C175.186 239.99 171.656 239.02 167.699 239.02C163.819 239.02 160.289 239.99 157.108 241.929C154.004 243.791 151.522 246.391 149.66 249.727C147.875 252.986 146.983 256.71 146.983 260.9C146.983 265.012 147.875 268.736 149.66 272.073C151.522 275.331 154.004 277.931 157.108 279.87C160.289 281.732 163.819 282.663 167.699 282.663ZM193.769 292.789C192.062 292.789 190.626 292.246 189.463 291.159C188.376 289.996 187.833 288.56 187.833 286.853V269.047L190.045 256.71L199.704 260.9V286.853C199.704 288.56 199.122 289.996 197.959 291.159C196.872 292.246 195.476 292.789 193.769 292.789Z" fill="white"/>
<path d="M232.502 292.672C229.088 292.672 226.062 291.741 223.424 289.879C220.786 288.017 218.73 285.495 217.255 282.314C215.781 279.056 215.044 275.331 215.044 271.142V207.596C215.044 205.889 215.587 204.493 216.674 203.406C217.76 202.32 219.156 201.777 220.863 201.777C222.57 201.777 223.967 202.32 225.053 203.406C226.139 204.493 226.682 205.889 226.682 207.596V271.142C226.682 274.012 227.226 276.379 228.312 278.241C229.398 280.103 230.795 281.034 232.502 281.034H235.411C236.963 281.034 238.204 281.577 239.136 282.663C240.144 283.75 240.648 285.146 240.648 286.853C240.648 288.56 239.911 289.957 238.437 291.043C236.963 292.129 235.062 292.672 232.734 292.672H232.502Z" fill="white"/>
<path d="M267.394 292.672C263.98 292.672 260.954 291.741 258.316 289.879C255.678 288.017 253.622 285.495 252.148 282.314C250.673 279.056 249.936 275.331 249.936 271.142V207.596C249.936 205.889 250.48 204.493 251.566 203.406C252.652 202.32 254.049 201.777 255.756 201.777C257.463 201.777 258.859 202.32 259.945 203.406C261.032 204.493 261.575 205.889 261.575 207.596V271.142C261.575 274.012 262.118 276.379 263.204 278.241C264.29 280.103 265.687 281.034 267.394 281.034H270.303C271.855 281.034 273.097 281.577 274.028 282.663C275.036 283.75 275.541 285.146 275.541 286.853C275.541 288.56 274.804 289.957 273.329 291.043C271.855 292.129 269.954 292.672 267.627 292.672H267.394Z" fill="white"/>
<path d="M340.925 292.789C339.218 292.789 337.783 292.246 336.619 291.159C335.533 289.996 334.99 288.56 334.99 286.853V258.223C334.99 253.8 334.175 250.193 332.546 247.399C330.916 244.606 328.705 242.55 325.912 241.231C323.196 239.834 320.054 239.136 316.485 239.136C313.226 239.136 310.278 239.796 307.64 241.115C305.002 242.434 302.907 244.218 301.355 246.468C299.803 248.641 299.027 251.162 299.027 254.033H291.695C291.695 249.145 292.859 244.8 295.187 240.998C297.592 237.119 300.851 234.054 304.963 231.804C309.075 229.554 313.692 228.429 318.813 228.429C324.166 228.429 328.938 229.593 333.128 231.92C337.395 234.17 340.731 237.507 343.137 241.929C345.62 246.352 346.861 251.783 346.861 258.223V286.853C346.861 288.56 346.279 289.996 345.115 291.159C344.029 292.246 342.632 292.789 340.925 292.789ZM293.092 292.789C291.385 292.789 289.95 292.246 288.786 291.159C287.699 289.996 287.156 288.56 287.156 286.853V234.946C287.156 233.162 287.699 231.726 288.786 230.64C289.95 229.554 291.385 229.011 293.092 229.011C294.876 229.011 296.312 229.554 297.398 230.64C298.484 231.726 299.027 233.162 299.027 234.946V286.853C299.027 288.56 298.484 289.996 297.398 291.159C296.312 292.246 294.876 292.789 293.092 292.789Z" fill="white"/>
<path d="M393.023 293.138C387.359 293.138 382.277 291.741 377.777 288.948C373.277 286.077 369.708 282.237 367.07 277.426C364.509 272.538 363.229 267.029 363.229 260.9C363.229 254.77 364.626 249.261 367.419 244.373C370.29 239.485 374.13 235.645 378.941 232.851C383.829 229.981 389.299 228.545 395.351 228.545C401.403 228.545 406.834 229.981 411.645 232.851C416.455 235.645 420.257 239.485 423.05 244.373C425.921 249.261 427.356 254.77 427.356 260.9H422.817C422.817 267.029 421.498 272.538 418.86 277.426C416.3 282.237 412.77 286.077 408.269 288.948C403.769 291.741 398.687 293.138 393.023 293.138ZM395.351 282.663C399.308 282.663 402.838 281.732 405.942 279.87C409.045 277.931 411.489 275.331 413.274 272.073C415.059 268.736 415.951 265.012 415.951 260.9C415.951 256.71 415.059 252.986 413.274 249.727C411.489 246.391 409.045 243.791 405.942 241.929C402.838 239.99 399.308 239.02 395.351 239.02C391.471 239.02 387.941 239.99 384.76 241.929C381.656 243.791 379.174 246.391 377.312 249.727C375.527 252.986 374.635 256.71 374.635 260.9C374.635 265.012 375.527 268.736 377.312 272.073C379.174 275.331 381.656 277.931 384.76 279.87C387.941 281.732 391.471 282.663 395.351 282.663ZM421.421 292.789C419.714 292.789 418.278 292.246 417.115 291.159C416.028 289.996 415.485 288.56 415.485 286.853V269.047L417.696 256.71L427.356 260.9V286.853C427.356 288.56 426.774 289.996 425.611 291.159C424.524 292.246 423.128 292.789 421.421 292.789Z" fill="white"/>
<path d="M473.887 293.138C467.835 293.138 462.365 291.741 457.477 288.948C452.666 286.077 448.826 282.198 445.955 277.31C443.162 272.422 441.765 266.913 441.765 260.783C441.765 254.654 443.045 249.184 445.606 244.373C448.244 239.485 451.813 235.645 456.313 232.851C460.813 229.981 465.895 228.545 471.559 228.545C476.137 228.545 480.366 229.515 484.245 231.455C488.124 233.317 491.383 235.877 494.021 239.136V207.713C494.021 205.928 494.564 204.493 495.651 203.406C496.814 202.32 498.25 201.777 499.957 201.777C501.741 201.777 503.177 202.32 504.263 203.406C505.349 204.493 505.892 205.928 505.892 207.713V260.783C505.892 266.913 504.457 272.422 501.586 277.31C498.793 282.198 494.991 286.077 490.18 288.948C485.37 291.741 479.939 293.138 473.887 293.138ZM473.887 282.663C477.844 282.663 481.374 281.732 484.478 279.87C487.581 277.931 490.025 275.293 491.81 271.956C493.594 268.62 494.487 264.896 494.487 260.783C494.487 256.594 493.594 252.869 491.81 249.611C490.025 246.352 487.581 243.791 484.478 241.929C481.374 239.99 477.844 239.02 473.887 239.02C470.007 239.02 466.477 239.99 463.296 241.929C460.192 243.791 457.71 246.352 455.847 249.611C454.063 252.869 453.171 256.594 453.171 260.783C453.171 264.896 454.063 268.62 455.847 271.956C457.71 275.293 460.192 277.931 463.296 279.87C466.477 281.732 470.007 282.663 473.887 282.663Z" fill="white"/>
<path d="M556.766 293.138C550.326 293.138 544.585 291.78 539.542 289.065C534.576 286.271 530.658 282.469 527.787 277.659C524.994 272.771 523.597 267.184 523.597 260.9C523.597 254.538 524.916 248.951 527.554 244.141C530.27 239.253 533.994 235.451 538.727 232.735C543.46 229.942 548.891 228.545 555.021 228.545C561.073 228.545 566.271 229.903 570.616 232.619C574.961 235.257 578.258 238.942 580.508 243.675C582.836 248.33 584 253.723 584 259.852C584 261.327 583.496 262.568 582.487 263.577C581.478 264.508 580.198 264.973 578.646 264.973H531.744V255.663H578.297L573.526 258.921C573.448 255.042 572.672 251.589 571.198 248.563C569.724 245.46 567.629 243.016 564.913 241.231C562.198 239.446 558.9 238.554 555.021 238.554C550.598 238.554 546.796 239.524 543.615 241.464C540.511 243.404 538.145 246.08 536.516 249.494C534.886 252.831 534.072 256.632 534.072 260.9C534.072 265.167 535.041 268.969 536.981 272.305C538.921 275.642 541.598 278.28 545.012 280.219C548.426 282.159 552.344 283.129 556.766 283.129C559.172 283.129 561.616 282.702 564.098 281.849C566.659 280.918 568.715 279.87 570.267 278.706C571.431 277.853 572.672 277.426 573.991 277.426C575.388 277.349 576.59 277.737 577.599 278.59C578.918 279.754 579.616 281.034 579.694 282.431C579.771 283.827 579.151 285.03 577.832 286.039C575.194 288.133 571.896 289.84 567.939 291.159C564.06 292.478 560.335 293.138 556.766 293.138Z" fill="white"/>
</svg>
