<svg width="272" height="163" viewBox="0 0 272 163" fill="none" xmlns="http://www.w3.org/2000/svg">
<path d="M140.337 100.483C142.04 95.3011 142.482 92.2552 142.667 86.6946L143.444 94.851L140.337 100.483Z" fill="url(#paint0_linear_109_3712)"/>
<path d="M241.709 58.3417H264.624C268.7 58.3417 272.004 61.6456 272.004 65.7212V145.731C272.004 154.097 265.222 160.878 256.856 160.878C248.49 160.878 241.709 154.097 241.709 145.731V58.3417Z" fill="url(#paint1_linear_109_3712)"/>
<path d="M142.667 66.1096C142.667 61.8195 146.145 58.3417 150.435 58.3417H167.136C170.354 58.3417 172.962 60.9501 172.962 64.1676V75.0427C172.962 83.4085 166.181 90.1902 157.815 90.1902H142.667V66.1096Z" fill="url(#paint2_linear_109_3712)"/>
<path d="M142.667 80.0919C142.667 71.7262 149.449 64.9444 157.815 64.9444H172.962V94.0742C172.962 110.806 159.399 124.369 142.667 124.369V80.0919Z" fill="url(#paint3_linear_109_3712)"/>
<path d="M142.659 66.0122C142.587 57.4559 144.205 48.9733 147.42 41.0532C150.634 33.1332 155.382 25.9323 161.388 19.8658C167.394 13.7992 174.541 8.98692 182.417 5.70622C190.292 2.42553 198.74 0.741341 207.274 0.750729C215.808 0.760117 224.258 2.4629 232.139 5.76092C240.02 9.05895 247.175 13.887 253.191 19.9668C259.208 26.0466 263.967 33.2579 267.194 41.185C270.422 49.1121 272.054 57.5983 271.996 66.1545L241.775 65.892C241.806 61.3343 240.937 56.8138 239.217 52.5911C237.498 48.3685 234.963 44.5271 231.758 41.2885C228.553 38.0499 224.742 35.4781 220.544 33.7213C216.346 31.9645 211.844 31.0575 207.299 31.0525C202.753 31.0475 198.253 31.9446 194.058 33.6922C189.863 35.4397 186.056 38.0032 182.856 41.2348C179.657 44.4663 177.128 48.3021 175.415 52.521C173.703 56.7398 172.841 61.2584 172.879 65.8162L142.659 66.0122Z" fill="url(#paint4_linear_109_3712)"/>
<path d="M128.042 37.3992C135.122 30.5959 135.404 19.139 127.223 13.7099C120.838 9.47226 113.865 6.13165 106.498 3.80799C93.4455 -0.30928 79.5731 -1.10266 66.147 1.50025C52.7209 4.10316 40.1686 10.0195 29.6359 18.7092C19.1031 27.399 10.9251 38.5855 5.84841 51.2477C0.771692 63.91 -1.04213 77.6448 0.572474 91.1986C2.18708 104.752 7.1787 117.694 15.0918 128.841C23.0048 139.989 33.5874 148.988 45.8735 155.017C52.8137 158.422 60.1727 160.819 67.7268 162.16C77.3872 163.874 85.0871 155.399 84.6669 145.596C84.2481 135.823 75.7339 128.55 66.5117 125.289C64.8153 124.69 63.1505 123.99 61.5262 123.193C54.5738 119.781 48.5855 114.689 44.1077 108.381C39.6299 102.073 36.8053 94.75 35.8917 87.0802C34.978 79.4105 36.0044 71.6384 38.8772 64.4732C41.7499 57.308 46.3776 50.9779 52.3378 46.0606C58.298 41.1433 65.4009 37.7954 72.9984 36.3225C80.5958 34.8496 88.4458 35.2986 95.8319 37.6284C97.5579 38.1728 99.2457 38.8159 100.887 39.5528C109.811 43.558 120.99 44.1763 128.042 37.3992Z" fill="url(#paint5_linear_109_3712)"/>
<path d="M159.152 84.8662C167.536 85.3105 174.145 92.4846 172.261 100.666C168.762 115.86 160.992 129.787 149.738 140.68C138.586 151.476 124.652 158.673 109.668 161.574C101.308 163.192 94.3388 156.155 94.2835 147.64C94.2274 139.012 101.391 132.225 109.591 129.54C116.601 127.244 123.07 123.373 128.481 118.134C133.984 112.807 138.143 106.31 140.717 99.18C143.612 91.163 150.64 84.4151 159.152 84.8662Z" fill="url(#paint6_linear_109_3712)"/>
<path d="M112.755 70.7835C108.132 70.5172 103.577 74.3664 101.771 76.434C101.706 76.5089 101.613 76.5509 101.514 76.5509C101.396 76.5509 101.286 76.489 101.223 76.3897C98.6914 72.435 93.5711 70.7835 90.5856 70.7835C87.468 70.7836 83.3316 72.1405 80.8864 74.8546C70.4945 86.3893 82.272 97.2455 83.6576 98.6025C85.0431 99.9595 99.5918 112.512 100.285 112.851C100.977 113.19 102.017 113.19 103.056 112.851C103.887 112.58 114.487 103.239 119.683 98.6025C133.192 85.3715 123.147 75.8724 122.108 74.8546C121.068 73.8368 118.644 71.1228 112.755 70.7835Z" fill="url(#paint7_linear_109_3712)"/>
<path d="M146.564 92.8215L143.548 92.0731C142.104 94.5497 141.726 95.9322 141.984 98.3753L145 99.1236L146.564 92.8215Z" fill="url(#paint8_linear_109_3712)"/>
<defs>
<linearGradient id="paint0_linear_109_3712" x1="136.002" y1="0" x2="136.002" y2="162.382" gradientUnits="userSpaceOnUse">
<stop stop-color="#FC4481"/>
<stop offset="0.5" stop-color="#FD76A2"/>
<stop offset="1" stop-color="#FFBFD6"/>
</linearGradient>
<linearGradient id="paint1_linear_109_3712" x1="136.002" y1="0" x2="136.002" y2="162.382" gradientUnits="userSpaceOnUse">
<stop stop-color="#FC4481"/>
<stop offset="0.5" stop-color="#FD76A2"/>
<stop offset="1" stop-color="#FFBFD6"/>
</linearGradient>
<linearGradient id="paint2_linear_109_3712" x1="136.002" y1="0" x2="136.002" y2="162.382" gradientUnits="userSpaceOnUse">
<stop stop-color="#FC4481"/>
<stop offset="0.5" stop-color="#FD76A2"/>
<stop offset="1" stop-color="#FFBFD6"/>
</linearGradient>
<linearGradient id="paint3_linear_109_3712" x1="136.002" y1="0" x2="136.002" y2="162.382" gradientUnits="userSpaceOnUse">
<stop stop-color="#FC4481"/>
<stop offset="0.5" stop-color="#FD76A2"/>
<stop offset="1" stop-color="#FFBFD6"/>
</linearGradient>
<linearGradient id="paint4_linear_109_3712" x1="136.002" y1="0" x2="136.002" y2="162.382" gradientUnits="userSpaceOnUse">
<stop stop-color="#FC4481"/>
<stop offset="0.5" stop-color="#FD76A2"/>
<stop offset="1" stop-color="#FFBFD6"/>
</linearGradient>
<linearGradient id="paint5_linear_109_3712" x1="136.002" y1="0" x2="136.002" y2="162.382" gradientUnits="userSpaceOnUse">
<stop stop-color="#FC4481"/>
<stop offset="0.5" stop-color="#FD76A2"/>
<stop offset="1" stop-color="#FFBFD6"/>
</linearGradient>
<linearGradient id="paint6_linear_109_3712" x1="136.002" y1="0" x2="136.002" y2="162.382" gradientUnits="userSpaceOnUse">
<stop stop-color="#FC4481"/>
<stop offset="0.5" stop-color="#FD76A2"/>
<stop offset="1" stop-color="#FFBFD6"/>
</linearGradient>
<linearGradient id="paint7_linear_109_3712" x1="136.002" y1="0" x2="136.002" y2="162.382" gradientUnits="userSpaceOnUse">
<stop stop-color="#FC4481"/>
<stop offset="0.5" stop-color="#FD76A2"/>
<stop offset="1" stop-color="#FFBFD6"/>
</linearGradient>
<linearGradient id="paint8_linear_109_3712" x1="136.002" y1="0" x2="136.002" y2="162.382" gradientUnits="userSpaceOnUse">
<stop stop-color="#FC4481"/>
<stop offset="0.5" stop-color="#FD76A2"/>
<stop offset="1" stop-color="#FFBFD6"/>
</linearGradient>
</defs>
</svg>
