<svg width="1032" height="147" viewBox="0 0 1032 147" fill="none" xmlns="http://www.w3.org/2000/svg">
<path d="M115.16 86.7822C116.374 83.0891 116.689 80.9182 116.821 76.9551L117.375 82.7683L115.16 86.7822Z" fill="white"/>
<path d="M187.41 56.748H203.743C206.647 56.748 209.002 59.1029 209.002 62.0077V119.033C209.002 124.995 204.169 129.829 198.206 129.829C192.244 129.829 187.41 124.995 187.41 119.033V56.748Z" fill="white"/>
<path d="M116.816 62.2845C116.816 59.2268 119.295 56.748 122.353 56.748H134.256C136.549 56.748 138.408 58.6071 138.408 60.9004V68.6514C138.408 74.6139 133.575 79.4474 127.612 79.4474H116.816V62.2845Z" fill="white"/>
<path d="M116.816 72.2511C116.816 66.2886 121.65 61.4551 127.612 61.4551H138.408V82.2167C138.408 94.1417 128.741 103.809 116.816 103.809V72.2511Z" fill="white"/>
<path d="M116.809 62.2154C116.758 56.1171 117.911 50.0713 120.202 44.4264C122.493 38.7816 125.877 33.6493 130.158 29.3255C134.439 25.0017 139.532 21.5718 145.145 19.2336C150.758 16.8954 156.779 15.695 162.862 15.7017C168.944 15.7084 174.967 16.922 180.584 19.2726C186.201 21.6232 191.3 25.0643 195.588 29.3975C199.876 33.7308 203.268 38.8704 205.569 44.5203C207.869 50.1702 209.032 56.2186 208.991 62.3168L187.452 62.1297C187.474 58.8813 186.854 55.6595 185.629 52.6498C184.403 49.6402 182.597 46.9024 180.312 44.5942C178.028 42.2859 175.312 40.4529 172.32 39.2008C169.328 37.9486 166.119 37.3022 162.88 37.2986C159.64 37.295 156.432 37.9345 153.442 39.18C150.452 40.4256 147.739 42.2526 145.459 44.5558C143.178 46.859 141.376 49.5929 140.155 52.5998C138.935 55.6067 138.321 58.8272 138.348 62.0757L116.809 62.2154Z" fill="white"/>
<path d="M106.392 41.8219C111.438 36.973 111.639 28.8073 105.808 24.9379C101.257 21.9176 96.2872 19.5366 91.0369 17.8805C81.7339 14.946 71.8467 14.3805 62.2775 16.2357C52.7083 18.0909 43.762 22.3076 36.255 28.501C28.7479 34.6945 22.9193 42.6674 19.301 51.6922C15.6826 60.7169 14.3899 70.5061 15.5407 80.1663C16.6914 89.8266 20.2491 99.0502 25.889 106.995C31.5289 114.941 39.0713 121.354 47.828 125.651C52.7745 128.079 58.0195 129.787 63.4035 130.742C70.2887 131.964 75.7767 125.924 75.4772 118.937C75.1787 111.972 69.1104 106.788 62.5375 104.464C61.3284 104.036 60.1418 103.538 58.9842 102.97C54.029 100.538 49.7609 96.9088 46.5695 92.4128C43.378 87.9169 41.3649 82.6975 40.7137 77.2311C40.0625 71.7646 40.794 66.2252 42.8415 61.1183C44.889 56.0115 48.1873 51.4998 52.4353 47.9951C56.6833 44.4904 61.7458 42.1043 67.1607 41.0545C72.5756 40.0048 78.1705 40.3247 83.4348 41.9853C84.665 42.3733 85.8679 42.8317 87.0381 43.3569C93.398 46.2115 101.365 46.6522 106.392 41.8219Z" fill="white"/>
<path d="M128.569 75.6519C134.544 75.9685 139.255 81.0818 137.912 86.9131C135.418 97.7422 129.88 107.668 121.859 115.432C113.911 123.127 103.98 128.256 93.2998 130.324C87.3414 131.477 82.3745 126.462 82.335 120.393C82.2951 114.243 87.4008 109.406 93.2453 107.492C98.2417 105.856 102.852 103.097 106.709 99.3629C110.631 95.5663 113.595 90.9355 115.43 85.8537C117.493 80.1398 122.502 75.3304 128.569 75.6519Z" fill="white"/>
<path d="M95.4978 65.6148C92.2032 65.425 88.9562 68.1684 87.6692 69.6421C87.6226 69.6954 87.5566 69.7254 87.4858 69.7254C87.4018 69.7254 87.3239 69.6813 87.2786 69.6105C85.4743 66.7919 81.8249 65.6148 79.6971 65.6149C77.4751 65.6149 74.5269 66.582 72.7842 68.5164C65.3776 76.7375 73.7717 84.475 74.7593 85.4422C75.7468 86.4094 86.1161 95.3559 86.6098 95.5977C87.1036 95.8395 87.8443 95.8395 88.5849 95.5977C89.1775 95.4042 96.7322 88.7468 100.436 85.4422C110.064 76.0121 102.904 69.2418 102.164 68.5164C101.423 67.791 99.6948 65.8566 95.4978 65.6148Z" fill="white"/>
<path d="M328.435 140.394C319.403 140.394 310.928 138.721 303.011 135.376C295.205 131.919 288.347 127.18 282.437 121.159C276.639 115.026 272.067 107.889 268.722 99.7491C265.488 91.6089 263.871 82.7997 263.871 73.3214C263.871 63.9547 265.488 55.257 268.722 47.2283C272.067 39.0882 276.639 32.0073 282.437 25.9858C288.347 19.8528 295.205 15.058 303.011 11.6012C310.816 8.1444 319.291 6.41602 328.435 6.41602C337.021 6.41602 344.381 7.5311 350.514 9.76128C356.758 11.9915 363.003 15.6713 369.247 20.8007C370.139 21.4697 370.808 22.1945 371.254 22.9751C371.812 23.6442 372.146 24.369 372.258 25.1495C372.481 25.8186 372.592 26.6549 372.592 27.6585C372.592 29.7772 371.812 31.5613 370.251 33.0109C368.801 34.349 367.017 35.1296 364.898 35.3526C362.78 35.4641 360.717 34.7393 358.71 33.1782C354.584 29.6099 350.291 26.8779 345.83 24.9823C341.481 23.0866 335.683 22.1388 328.435 22.1388C321.856 22.1388 315.667 23.4769 309.869 26.1531C304.07 28.8293 298.941 32.5091 294.48 37.1925C290.131 41.8759 286.73 47.3398 284.277 53.5843C281.824 59.7173 280.597 66.2964 280.597 73.3214C280.597 80.458 281.824 87.1485 284.277 93.3931C286.73 99.526 290.131 104.934 294.48 109.618C298.941 114.301 304.07 117.981 309.869 120.657C315.667 123.222 321.856 124.504 328.435 124.504C334.122 124.504 339.474 123.556 344.492 121.661C349.622 119.653 354.528 116.921 359.211 113.465C361.218 112.015 363.17 111.402 365.066 111.625C367.073 111.736 368.745 112.517 370.083 113.966C371.422 115.305 372.091 117.2 372.091 119.653C372.091 120.769 371.868 121.884 371.422 122.999C370.976 124.002 370.306 124.95 369.414 125.842C363.393 130.637 356.925 134.261 350.012 136.714C343.21 139.168 336.017 140.394 328.435 140.394Z" fill="white"/>
<path d="M429.68 139.391C421.54 139.391 414.236 137.383 407.769 133.369C401.301 129.243 396.172 123.724 392.38 116.81C388.701 109.785 386.861 101.868 386.861 93.0585C386.861 84.2493 388.868 76.3322 392.882 69.3071C397.008 62.282 402.528 56.7623 409.441 52.748C416.466 48.6222 424.328 46.5593 433.025 46.5593C441.723 46.5593 449.529 48.6222 456.442 52.748C463.356 56.7623 468.82 62.282 472.834 69.3071C476.96 76.3322 479.023 84.2493 479.023 93.0585H472.5C472.5 101.868 470.604 109.785 466.813 116.81C463.133 123.724 458.059 129.243 451.592 133.369C445.124 137.383 437.82 139.391 429.68 139.391ZM433.025 124.337C438.712 124.337 443.786 122.999 448.246 120.322C452.707 117.535 456.219 113.799 458.784 109.116C461.349 104.321 462.631 98.9685 462.631 93.0585C462.631 87.037 461.349 81.6846 458.784 77.0012C456.219 72.2063 452.707 68.4708 448.246 65.7946C443.786 63.0068 438.712 61.613 433.025 61.613C427.45 61.613 422.376 63.0068 417.805 65.7946C413.344 68.4708 409.776 72.2063 407.1 77.0012C404.535 81.6846 403.253 87.037 403.253 93.0585C403.253 98.9685 404.535 104.321 407.1 109.116C409.776 113.799 413.344 117.535 417.805 120.322C422.376 122.999 427.45 124.337 433.025 124.337ZM470.493 138.889C468.039 138.889 465.976 138.108 464.304 136.547C462.743 134.874 461.962 132.811 461.962 130.358V104.767L465.14 87.037L479.023 93.0585V130.358C479.023 132.811 478.187 134.874 476.514 136.547C474.953 138.108 472.946 138.889 470.493 138.889Z" fill="white"/>
<path d="M526.159 138.721C521.252 138.721 516.903 137.383 513.112 134.707C509.321 132.031 506.366 128.407 504.247 123.835C502.128 119.152 501.069 113.799 501.069 107.778V16.4518C501.069 13.9986 501.85 11.9915 503.411 10.4303C504.972 8.86921 506.979 8.08865 509.432 8.08865C511.885 8.08865 513.893 8.86921 515.454 10.4303C517.015 11.9915 517.795 13.9986 517.795 16.4518V107.778C517.795 111.904 518.576 115.305 520.137 117.981C521.698 120.657 523.705 121.995 526.159 121.995H530.34C532.57 121.995 534.355 122.776 535.693 124.337C537.142 125.898 537.867 127.905 537.867 130.358C537.867 132.811 536.808 134.819 534.689 136.38C532.57 137.941 529.838 138.721 526.493 138.721H526.159Z" fill="white"/>
<path d="M576.305 138.721C571.399 138.721 567.05 137.383 563.258 134.707C559.467 132.031 556.512 128.407 554.393 123.835C552.275 119.152 551.215 113.799 551.215 107.778V16.4518C551.215 13.9986 551.996 11.9915 553.557 10.4303C555.118 8.86921 557.125 8.08865 559.579 8.08865C562.032 8.08865 564.039 8.86921 565.6 10.4303C567.161 11.9915 567.942 13.9986 567.942 16.4518V107.778C567.942 111.904 568.722 115.305 570.284 117.981C571.845 120.657 573.852 121.995 576.305 121.995H580.487C582.717 121.995 584.501 122.776 585.839 124.337C587.289 125.898 588.013 127.905 588.013 130.358C588.013 132.811 586.954 134.819 584.835 136.38C582.717 137.941 579.985 138.721 576.64 138.721H576.305Z" fill="white"/>
<path d="M681.983 138.889C679.53 138.889 677.467 138.108 675.794 136.547C674.233 134.874 673.452 132.811 673.452 130.358V89.2115C673.452 82.8555 672.282 77.6703 669.94 73.656C667.598 69.6416 664.42 66.6866 660.406 64.791C656.503 62.7838 651.987 61.7802 646.858 61.7802C642.174 61.7802 637.937 62.7281 634.146 64.6237C630.354 66.5194 627.343 69.0841 625.113 72.3178C622.883 75.4401 621.768 79.0641 621.768 83.19H611.23C611.23 76.1649 612.903 69.9204 616.248 64.4565C619.705 58.881 624.388 54.4764 630.298 51.2426C636.208 48.0089 642.843 46.392 650.203 46.392C657.897 46.392 664.755 48.0646 670.776 51.4099C676.909 54.6437 681.704 59.4386 685.161 65.7946C688.729 72.1506 690.513 79.9562 690.513 89.2115V130.358C690.513 132.811 689.677 134.874 688.004 136.547C686.443 138.108 684.436 138.889 681.983 138.889ZM613.238 138.889C610.784 138.889 608.721 138.108 607.049 136.547C605.488 134.874 604.707 132.811 604.707 130.358V55.7588C604.707 53.194 605.488 51.1311 607.049 49.57C608.721 48.0089 610.784 47.2283 613.238 47.2283C615.802 47.2283 617.865 48.0089 619.426 49.57C620.987 51.1311 621.768 53.194 621.768 55.7588V130.358C621.768 132.811 620.987 134.874 619.426 136.547C617.865 138.108 615.802 138.889 613.238 138.889Z" fill="white"/>
<path d="M756.857 139.391C748.717 139.391 741.413 137.383 734.945 133.369C728.478 129.243 723.348 123.724 719.557 116.81C715.877 109.785 714.037 101.868 714.037 93.0585C714.037 84.2493 716.045 76.3322 720.059 69.3071C724.185 62.282 729.704 56.7623 736.618 52.748C743.643 48.6222 751.504 46.5593 760.202 46.5593C768.9 46.5593 776.705 48.6222 783.619 52.748C790.533 56.7623 795.997 62.282 800.011 69.3071C804.137 76.3322 806.2 84.2493 806.2 93.0585H799.676C799.676 101.868 797.781 109.785 793.989 116.81C790.31 123.724 785.236 129.243 778.768 133.369C772.301 137.383 764.997 139.391 756.857 139.391ZM760.202 124.337C765.889 124.337 770.963 122.999 775.423 120.322C779.883 117.535 783.396 113.799 785.961 109.116C788.525 104.321 789.808 98.9685 789.808 93.0585C789.808 87.037 788.525 81.6846 785.961 77.0012C783.396 72.2063 779.883 68.4708 775.423 65.7946C770.963 63.0068 765.889 61.613 760.202 61.613C754.627 61.613 749.553 63.0068 744.981 65.7946C740.521 68.4708 736.953 72.2063 734.276 77.0012C731.712 81.6846 730.429 87.037 730.429 93.0585C730.429 98.9685 731.712 104.321 734.276 109.116C736.953 113.799 740.521 117.535 744.981 120.322C749.553 122.999 754.627 124.337 760.202 124.337ZM797.669 138.889C795.216 138.889 793.153 138.108 791.48 136.547C789.919 134.874 789.139 132.811 789.139 130.358V104.767L792.317 87.037L806.2 93.0585V130.358C806.2 132.811 805.363 134.874 803.691 136.547C802.13 138.108 800.122 138.889 797.669 138.889Z" fill="white"/>
<path d="M873.072 139.391C864.375 139.391 856.513 137.383 849.488 133.369C842.575 129.243 837.055 123.668 832.929 116.643C828.915 109.618 826.908 101.7 826.908 92.8913C826.908 84.0821 828.747 76.2207 832.427 69.3071C836.219 62.282 841.348 56.7623 847.815 52.748C854.283 48.6222 861.587 46.5593 869.727 46.5593C876.306 46.5593 882.383 47.9531 887.959 50.7408C893.534 53.4171 898.218 57.0969 902.009 61.7802V16.6191C902.009 14.0544 902.789 11.9915 904.351 10.4303C906.023 8.86921 908.086 8.08865 910.539 8.08865C913.104 8.08865 915.167 8.86921 916.728 10.4303C918.289 11.9915 919.07 14.0544 919.07 16.6191V92.8913C919.07 101.7 917.007 109.618 912.881 116.643C908.867 123.668 903.403 129.243 896.489 133.369C889.576 137.383 881.77 139.391 873.072 139.391ZM873.072 124.337C878.759 124.337 883.833 122.999 888.293 120.322C892.754 117.535 896.266 113.743 898.831 108.949C901.396 104.154 902.678 98.8012 902.678 92.8913C902.678 86.8698 901.396 81.5173 898.831 76.834C896.266 72.1506 892.754 68.4708 888.293 65.7946C883.833 63.0068 878.759 61.613 873.072 61.613C867.497 61.613 862.423 63.0068 857.851 65.7946C853.391 68.4708 849.823 72.1506 847.146 76.834C844.582 81.5173 843.299 86.8698 843.299 92.8913C843.299 98.8012 844.582 104.154 847.146 108.949C849.823 113.743 853.391 117.535 857.851 120.322C862.423 122.999 867.497 124.337 873.072 124.337Z" fill="white"/>
<path d="M992.185 139.391C982.93 139.391 974.678 137.439 967.43 133.536C960.293 129.522 954.662 124.058 950.536 117.144C946.522 110.119 944.515 102.091 944.515 93.0585C944.515 83.9148 946.41 75.8861 950.202 68.9726C954.105 61.9475 959.457 56.4836 966.259 52.5807C973.061 48.5664 980.867 46.5593 989.676 46.5593C998.374 46.5593 1005.84 48.5107 1012.09 52.4135C1018.33 56.2048 1023.07 61.5015 1026.31 68.3035C1029.65 74.9941 1031.32 82.7439 1031.32 91.5532C1031.32 93.6718 1030.6 95.456 1029.15 96.9056C1027.7 98.2437 1025.86 98.9128 1023.63 98.9128H956.223V85.5317H1023.13L1016.27 90.215C1016.16 84.6396 1015.04 79.6775 1012.93 75.3286C1010.81 70.8682 1007.8 67.3557 1003.89 64.791C999.991 62.2263 995.251 60.9439 989.676 60.9439C983.32 60.9439 977.856 62.3378 973.284 65.1255C968.824 67.9132 965.423 71.7603 963.081 76.6667C960.739 81.4616 959.569 86.9255 959.569 93.0585C959.569 99.1915 960.962 104.655 963.75 109.45C966.538 114.245 970.385 118.037 975.291 120.824C980.198 123.612 985.829 125.006 992.185 125.006C995.642 125.006 999.154 124.393 1002.72 123.166C1006.4 121.828 1009.36 120.322 1011.59 118.65C1013.26 117.423 1015.04 116.81 1016.94 116.81C1018.95 116.698 1020.68 117.256 1022.13 118.483C1024.02 120.155 1025.02 121.995 1025.14 124.002C1025.25 126.009 1024.36 127.738 1022.46 129.187C1018.67 132.198 1013.93 134.651 1008.24 136.547C1002.67 138.443 997.314 139.391 992.185 139.391Z" fill="white"/>
</svg>
